<mxfile host="app.diagrams.net" agent="Mozilla/5.0 (Windows NT 10.0; Win64; x64) AppleWebKit/537.36 (KHTML, like Gecko) Chrome/120.0.0.0 Safari/537.36" version="24.7.14">
  <diagram name="PÃ¡gina-1" id="747kYmP7P1TnrGPusPLh">
    <mxGraphModel dx="1194" dy="760" grid="1" gridSize="10" guides="1" tooltips="1" connect="1" arrows="1" fold="1" page="1" pageScale="1" pageWidth="827" pageHeight="1169" math="0" shadow="0">
      <root>
        <mxCell id="0" />
        <mxCell id="1" parent="0" />
        <mxCell id="xxD-maHfD_Tf92AxqEWz-1" value="ALUNO" style="whiteSpace=wrap;html=1;align=center;" vertex="1" parent="1">
          <mxGeometry x="350" y="120" width="100" height="40" as="geometry" />
        </mxCell>
        <mxCell id="xxD-maHfD_Tf92AxqEWz-2" value="Nome" style="ellipse;whiteSpace=wrap;html=1;align=center;" vertex="1" parent="1">
          <mxGeometry x="320" y="220" width="100" height="40" as="geometry" />
        </mxCell>
        <mxCell id="xxD-maHfD_Tf92AxqEWz-3" value="NumMec" style="ellipse;whiteSpace=wrap;html=1;align=center;fontStyle=4;" vertex="1" parent="1">
          <mxGeometry x="200" y="190" width="100" height="40" as="geometry" />
        </mxCell>
        <mxCell id="xxD-maHfD_Tf92AxqEWz-5" value="Sexo" style="ellipse;whiteSpace=wrap;html=1;align=center;" vertex="1" parent="1">
          <mxGeometry x="460" y="220" width="100" height="40" as="geometry" />
        </mxCell>
        <mxCell id="xxD-maHfD_Tf92AxqEWz-6" value="DataNasc" style="ellipse;whiteSpace=wrap;html=1;align=center;" vertex="1" parent="1">
          <mxGeometry x="530" y="170" width="100" height="40" as="geometry" />
        </mxCell>
        <mxCell id="xxD-maHfD_Tf92AxqEWz-12" value="" style="endArrow=none;html=1;rounded=0;entryX=0.25;entryY=1;entryDx=0;entryDy=0;exitX=0.5;exitY=0;exitDx=0;exitDy=0;" edge="1" parent="1" source="xxD-maHfD_Tf92AxqEWz-2" target="xxD-maHfD_Tf92AxqEWz-1">
          <mxGeometry relative="1" as="geometry">
            <mxPoint x="260" y="180" as="sourcePoint" />
            <mxPoint x="420" y="180" as="targetPoint" />
          </mxGeometry>
        </mxCell>
        <mxCell id="xxD-maHfD_Tf92AxqEWz-14" value="" style="endArrow=none;html=1;rounded=0;exitX=0.35;exitY=-0.025;exitDx=0;exitDy=0;exitPerimeter=0;" edge="1" parent="1" source="xxD-maHfD_Tf92AxqEWz-5" target="xxD-maHfD_Tf92AxqEWz-1">
          <mxGeometry relative="1" as="geometry">
            <mxPoint x="327.5" y="266" as="sourcePoint" />
            <mxPoint x="472.5" y="220" as="targetPoint" />
          </mxGeometry>
        </mxCell>
        <mxCell id="xxD-maHfD_Tf92AxqEWz-15" value="" style="endArrow=none;html=1;rounded=0;exitX=0.09;exitY=0.2;exitDx=0;exitDy=0;exitPerimeter=0;entryX=1;entryY=0.5;entryDx=0;entryDy=0;" edge="1" parent="1" source="xxD-maHfD_Tf92AxqEWz-6" target="xxD-maHfD_Tf92AxqEWz-1">
          <mxGeometry relative="1" as="geometry">
            <mxPoint x="519" y="220" as="sourcePoint" />
            <mxPoint x="434" y="162" as="targetPoint" />
          </mxGeometry>
        </mxCell>
        <mxCell id="xxD-maHfD_Tf92AxqEWz-16" value="" style="endArrow=none;html=1;rounded=0;entryX=0.1;entryY=1;entryDx=0;entryDy=0;entryPerimeter=0;exitX=0.5;exitY=0;exitDx=0;exitDy=0;" edge="1" parent="1" source="xxD-maHfD_Tf92AxqEWz-3" target="xxD-maHfD_Tf92AxqEWz-1">
          <mxGeometry relative="1" as="geometry">
            <mxPoint x="260" y="230" as="sourcePoint" />
            <mxPoint x="271" y="150" as="targetPoint" />
          </mxGeometry>
        </mxCell>
      </root>
    </mxGraphModel>
  </diagram>
</mxfile>
